<?xml version="1.0" standalone="no"?>
<!DOCTYPE svg PUBLIC "-//W3C//DTD SVG 20010904//EN"
 "http://www.w3.org/TR/2001/REC-SVG-20010904/DTD/svg10.dtd">
<svg version="1.0" xmlns="http://www.w3.org/2000/svg"
 width="707.000000pt" height="200.000000pt" viewBox="0 0 707.000000 200.000000"
 preserveAspectRatio="xMidYMid meet">

<g transform="translate(0.000000,200.000000) scale(0.100000,-0.100000)"
fill="#000000" stroke="none">
<path d="M1295 1865 c-170 -38 -313 -115 -436 -235 -130 -128 -208 -261 -255
-436 -29 -107 -26 -342 4 -449 74 -256 263 -474 516 -595 162 -77 395 -94 589
-44 175 44 395 195 483 330 18 26 18 27 -11 50 -17 13 -89 64 -161 113 l-131
88 -45 -51 c-107 -121 -308 -181 -480 -145 -109 23 -232 104 -293 193 -140
204 -119 483 49 652 67 66 157 116 246 135 83 18 223 7 297 -24 67 -27 151
-81 159 -102 3 -7 -24 -43 -60 -81 -68 -72 -68 -72 -28 -123 l19 -23 174 80
c96 44 214 97 262 118 49 22 91 45 94 52 11 26 -80 158 -176 252 -133 132
-276 210 -443 244 -93 19 -288 20 -373 1z"/>
<path d="M5115 1298 c-7 -18 -69 -174 -138 -346 l-126 -313 46 3 46 3 35 93
35 92 158 0 158 0 31 -82 c18 -46 37 -89 42 -95 14 -17 92 -17 85 0 -3 6 -65
162 -138 345 l-133 332 -43 0 c-40 0 -45 -3 -58 -32z m144 -287 c23 -58 41
-108 41 -113 0 -4 -59 -8 -131 -8 -121 0 -131 1 -124 18 9 24 115 304 121 322
3 9 15 -13 29 -50 12 -36 41 -112 64 -169z"/>
<path d="M5600 986 l0 -346 40 0 40 0 0 129 0 128 108 5 c82 4 116 9 147 25
76 40 115 105 115 193 0 61 -18 106 -56 142 -53 49 -97 61 -251 66 l-143 5 0
-347z m297 251 c42 -22 63 -64 63 -122 0 -103 -57 -145 -195 -145 l-85 0 0
138 c0 76 3 142 8 146 13 14 175 1 209 -17z"/>
<path d="M6190 986 l0 -346 40 0 40 0 0 129 0 128 108 5 c82 4 116 9 147 25
76 40 115 105 115 193 0 61 -18 106 -56 142 -53 49 -97 61 -251 66 l-143 5 0
-347z m297 251 c42 -22 63 -64 63 -122 0 -103 -57 -145 -195 -145 l-85 0 0
138 c0 76 3 142 8 146 13 14 175 1 209 -17z"/>
</g>
</svg>
